HIERARCHY
ROOT Hips
{
	OFFSET	0.00	0.00	0.00
	CHANNELS 6 Xposition Yposition Zposition Zrotation Xrotation Yrotation
	JOINT LeftUpperLeg
	{
		OFFSET	 0.100000	-0.066564	-0.000554
		CHANNELS 3 Zrotation Xrotation Yrotation
		JOINT LeftLowerLeg
		{
			OFFSET	 0.002447	-0.463436	-0.005172
			CHANNELS 3 Zrotation Xrotation Yrotation
			JOINT LeftFoot
			{
				OFFSET	-0.002447	-0.420480	-0.020576
				CHANNELS 3 Zrotation Xrotation Yrotation
				JOINT LeftToes
				{
					OFFSET	 0.003734	-0.104922	 0.126407
					CHANNELS 3 Zrotation Xrotation Yrotation
					End Site
					{
						OFFSET	 0.000000	 0.000000	 0.059955
					}
				}
			}
		}
	}
	JOINT RightUpperLeg
	{
		OFFSET	-0.100000	-0.066564	-0.000554
		CHANNELS 3 Zrotation Xrotation Yrotation
		JOINT RightLowerLeg
		{
			OFFSET	-0.002447	-0.463436	-0.005146
			CHANNELS 3 Zrotation Xrotation Yrotation
			JOINT RightFoot
			{
				OFFSET	 0.002447	-0.420479	-0.020602
				CHANNELS 3 Zrotation Xrotation Yrotation
				JOINT RightToes
				{
					OFFSET	-0.003734	-0.104922	 0.126407
					CHANNELS 3 Zrotation Xrotation Yrotation
					End Site
					{
						OFFSET	-0.000000	 0.000000	 0.059955
					}
				}
			}
		}
	}
	JOINT Spine
	{
		OFFSET	 0.000000	 0.099235	-0.012273
		CHANNELS 3 Zrotation Xrotation Yrotation
		JOINT Chest
		{
			OFFSET	-0.000001	 0.116455	-0.014223
			CHANNELS 3 Zrotation Xrotation Yrotation
			JOINT UpperChest
			{
				OFFSET	 0.000001	 0.133602	-0.016265
				CHANNELS 3 Zrotation Xrotation Yrotation
				JOINT LeftShoulder
				{
					OFFSET	 0.061058	 0.091105	 0.007056
					CHANNELS 3 Zrotation Xrotation Yrotation
					JOINT LeftUpperArm
					{
						OFFSET	 0.133942	-0.002659	-0.026009
						CHANNELS 3 Zrotation Xrotation Yrotation
						JOINT LeftLowerArm
						{
							OFFSET	 0.274047	 0.000000	 0.000000
							CHANNELS 3 Zrotation Xrotation Yrotation
							JOINT LeftHand
							{
								OFFSET	 0.276145	 0.000000	 0.000000
								CHANNELS 3 Zrotation Xrotation Yrotation
								End Site
								{
									OFFSET	 0.165687	 0.000000	 0.000000
								}
							}
						}
					}
				}
				JOINT Neck
				{
					OFFSET	 0.000000	 0.150325	 0.007929
					CHANNELS 3 Zrotation Xrotation Yrotation
					JOINT Head
					{
						OFFSET	 0.000000	 0.103218	 0.031424
						CHANNELS 3 Zrotation Xrotation Yrotation
						End Site
						{
							OFFSET	 0.000000	 0.061931	 0.018855
						}
					}
				}
				JOINT RightShoulder
				{
					OFFSET	-0.061057	 0.091105	 0.007056
					CHANNELS 3 Zrotation Xrotation Yrotation
					JOINT RightUpperArm
					{
						OFFSET	-0.133943	-0.002660	-0.026009
						CHANNELS 3 Zrotation Xrotation Yrotation
						JOINT RightLowerArm
						{
							OFFSET	-0.274047	 0.000000	 0.000000
							CHANNELS 3 Zrotation Xrotation Yrotation
							JOINT RightHand
							{
								OFFSET	-0.276145	 0.000000	 0.000000
								CHANNELS 3 Zrotation Xrotation Yrotation
								End Site
								{
									OFFSET	-0.165687	 0.000000	 0.000000
								}
							}
						}
					}
				}
			}
		}
	}
}
MOTION
Frames:    5
Frame Time: 0.03333334
-0.056050	 1.038330	-0.535270	 0.937934	-0.706138	-85.826580	 10.651890	 6.256757	 14.559320	-0.000304	 0.091896	-0.000042	-13.983620	-5.146718	 9.826097	-0.000480	 0.927732	 0.000428	-7.016619	 2.197690	-24.309790	 0.089220	 15.598650	-0.000542	 7.580333	-16.633680	-6.401023	 0.000429	 0.866459	 0.000890	 0.521140	-0.081276	-1.985131	-0.000000	 0.000000	 0.000000	 1.041481	-0.180800	-3.976874	-1.773361	 6.823493	 34.238640	-81.384740	 15.228320	-12.825760	-2.134625	 3.240745	-8.628038	 25.681920	 19.036620	 5.464748	 3.066341	 5.406329	 5.627340	 3.378049	 5.527802	 5.831129	 3.902065	 2.660610	-26.967100	 79.095210	 13.654110	 7.537230	 6.414625	 1.860140	 26.269850	-12.622480	 18.505690	-9.736022
-0.062490	 1.037450	-0.524060	 1.262299	-0.848357	-88.292890	 9.545141	 7.107414	 15.988300	-0.000019	 0.083614	 0.000275	-13.800160	-6.558432	 10.670570	-0.000411	 1.155856	 0.000060	-8.104835	 1.884832	-23.144820	 0.071849	 15.520950	 0.001689	 8.422909	-16.415460	-5.152055	 0.000322	 0.982239	-0.000211	 0.312249	-0.202049	-2.185793	-0.000000	 0.000000	 0.000000	 0.616567	-0.414831	-4.379167	-2.361984	 8.031187	 31.911860	-79.601570	 13.238070	-16.189830	-1.054269	 0.569142	-7.768795	 25.349090	 19.303990	 5.970606	 3.223093	 5.512938	 6.334578	 3.351128	 5.570259	 6.497267	 3.871193	 1.847065	-26.915790	 80.588510	 15.636200	 8.574301	 5.531919	 2.298708	 26.023060	-12.569790	 20.034400	-9.932412
-0.065770	 1.036650	-0.517500	 1.403787	-0.839587	-89.408680	 8.991858	 7.478947	 15.748320	 0.000069	 0.067053	-0.000195	-13.244600	-7.205508	 11.919090	 0.000734	 1.088409	-0.000203	-8.586761	 1.747335	-22.419760	 0.092632	 15.454660	-0.001662	 8.626469	-16.286630	-4.914981	-0.000004	 1.036997	 0.000840	 0.254584	-0.207721	-2.276132	-0.000000	 0.000000	 0.000000	 0.501488	-0.424903	-4.558414	-2.635063	 8.302555	 31.072860	-78.470710	 11.623010	-18.128930	-1.638737	-0.505665	-8.258326	 25.237780	 19.924200	 6.245798	 2.987129	 5.522275	 6.582706	 3.083443	 5.551499	 6.761977	 3.854775	 1.474982	-26.851070	 80.837480	 16.016860	 8.788619	 5.748689	 2.844457	 26.554860	-12.520230	 20.385090	-10.355280
-0.068220	 1.036130	-0.513420	 1.372437	-0.796191	-90.035840	 8.846467	 7.235359	 15.268720	 0.008862	 1.276763	-0.001498	-12.851600	-8.238119	 12.740960	-0.000189	 1.033920	-0.000477	-8.840922	 1.839354	-22.133330	 0.095239	 15.366790	-0.001211	 8.664686	-16.206380	-4.737538	-0.000397	 1.091763	 0.000040	 0.259028	-0.212595	-2.268157	-0.000000	 0.000000	 0.000000	 0.509294	-0.435661	-4.543123	-2.712156	 8.445713	 30.817930	-77.492930	 10.441530	-19.472340	-3.110046	-1.642486	-9.567115	 25.289270	 20.231970	 5.975073	 2.776815	 5.581264	 6.770319	 2.770494	 5.591594	 6.755769	 3.592520	 1.249045	-27.063510	 81.102530	 16.371260	 8.692377	 6.180789	 3.499404	 26.945150	-12.430790	 20.738290	-10.269710
-0.070230	 1.035520	-0.510080	 1.405886	-0.524960	-90.713970	 9.281682	 5.652949	 14.527360	 0.014279	 5.075381	-0.004525	-12.533570	-10.519320	 13.527460	 0.000232	 0.942847	-0.000188	-8.803096	 1.881448	-22.008470	 0.069880	 15.156700	 0.001660	 8.560115	-16.010170	-4.453771	 0.000206	 1.142805	 0.000179	 0.302350	-0.190858	-2.175063	-0.000000	 0.000000	 0.000000	 0.600816	-0.392668	-4.354768	-2.800317	 8.602802	 30.338240	-76.149870	 8.229097	-21.126950	-6.479775	-3.059444	-13.361640	 25.919750	 20.280340	 5.263803	 2.391360	 5.753783	 6.805974	 2.322168	 5.696346	 6.620562	 3.671517	 1.163358	-26.883110	 81.144550	 16.224530	 8.843145	 6.279797	 4.304584	 27.483490	-12.517200	 21.840870	-10.398290
